<svg xmlns="http://www.w3.org/2000/svg" xmlns:xlink="http://www.w3.org/1999/xlink" aria-hidden="true" role="img" class="iconify iconify--logos" width="31.88" height="32" preserveAspectRatio="xMidYMid meet" viewBox="0 0 256 257"><defs><linearGradient id="IconifyId1813088fe1fbc01fb466" x1="-8.35%" x2="62.5%" y1="13.16%" y2="109.52%"><stop offset="0%" stop-color="#41D1FF"/><stop offset="100%" stop-color="#BD34FE"/></linearGradient><linearGradient id="IconifyId1813088fe1fbc01fb467" x1="43.37%" x2="50%" y1="0%" y2="150%"><stop offset="0%" stop-color="#FFEA83"/><stop offset="8.33%" stop-color="#FFDD35"/><stop offset="100%" stop-color="#FFA800"/></linearGradient></defs><path fill="url(#IconifyId1813088fe1fbc01fb466)" d="M255.153 37.938L134.897 252.978c-7.609 13.734-28.117 14.278-36.953.787l-35.74-84.271l-81.187-12.776c-15.708-2.185-15.798-24.785-.345-29.249L239.914 4.548c14.698-4.981 26.145 8.043 15.239 33.39z" fill-opacity="url(#IconifyId1813088fe1fbc01fb466)"></path><path fill="url(#IconifyId1813088fe1fbc01fb467)" d="M177.421.864L59.969 83.341c-14.879 13.173-5.606 36.773 13.916 33.364l46.235 18.472l-18.7 44.716c-7.382 19.218 26.349 29.898 33.127 6.631l104.237-149.161C251.924 16.255 232.289-6.168 218.192 5.215c-14.099 5.177-32.06 11.703-40.771-4.35z" fill-opacity="url(#IconifyId1813088fe1fbc01fb467)"></path></svg>
