<svg xmlns="http://www.w3.org/2000/svg" viewBox="0 0 1920 1080" preserveAspectRatio="xMidYMid slice">
  <defs>
    <radialGradient id="darkSky" cx="50%" cy="10%" r="90%">
      <stop offset="0%" style="stop-color:#2a1a3a"/>
      <stop offset="50%" style="stop-color:#1a0f2a"/>
      <stop offset="100%" style="stop-color:#0a0515"/>
    </radialGradient>
    <linearGradient id="trunkDark" x1="0%" y1="0%" x2="100%" y2="0%">
      <stop offset="0%" style="stop-color:#1a0f0a"/>
      <stop offset="50%" style="stop-color:#2d1a10"/>
      <stop offset="100%" style="stop-color:#0f0805"/>
    </linearGradient>
    <radialGradient id="purpleGlow" cx="50%" cy="50%" r="50%">
      <stop offset="0%" style="stop-color:#6b21a8;stop-opacity:0.4"/>
      <stop offset="100%" style="stop-color:#4c1d95;stop-opacity:0"/>
    </radialGradient>
    <filter id="shadowBlur"><feGaussianBlur stdDeviation="4"/></filter>
    <filter id="deepBlur"><feGaussianBlur stdDeviation="10"/></filter>
  </defs>
  <rect width="1920" height="1080" fill="url(#darkSky)"/>
  <circle cx="960" cy="600" r="400" fill="url(#purpleGlow)" filter="url(#deepBlur)"/>
  <g fill="#a78bfa" opacity="0.6">
    <circle cx="200" cy="150" r="1.5"/>
    <circle cx="550" cy="100" r="1.2"/>
    <circle cx="850" cy="180" r="1.8"/>
    <circle cx="1200" cy="80" r="1.4"/>
    <circle cx="1500" cy="130" r="1.6"/>
    <circle cx="1780" cy="200" r="1.3"/>
    <circle cx="400" cy="280" r="1.1"/>
    <circle cx="1100" cy="250" r="1.5"/>
    <circle cx="1650" cy="300" r="1"/>
  </g>
  <g opacity="0.85">
    <rect x="0" y="300" width="180" height="780" fill="url(#trunkDark)"/>
    <polygon points="90,300 0,700 180,700" fill="#12080a" opacity="0.9"/>
    <polygon points="90,300 30,500 150,500" fill="#1a0f15"/>
    <polygon points="90,450 20,650 160,650" fill="#150a10"/>
    <rect x="280" y="200" width="220" height="880" fill="url(#trunkDark)"/>
    <polygon points="390,200 240,600 540,600" fill="#0f0808" opacity="0.9"/>
    <polygon points="390,200 280,420 500,420" fill="#1a0f12"/>
    <polygon points="390,380 260,600 520,600" fill="#12080a"/>
    <rect x="650" y="100" width="180" height="980" fill="url(#trunkDark)"/>
    <polygon points="740,100 580,520 900,520" fill="#0d0508" opacity="0.95"/>
    <polygon points="740,100 620,350 860,350" fill="#150a10"/>
    <polygon points="740,320 600,550 880,550" fill="#100808"/>
    <rect x="1080" y="150" width="200" height="930" fill="url(#trunkDark)"/>
    <polygon points="1180,150 1020,550 1340,550" fill="#0f080a" opacity="0.9"/>
    <polygon points="1180,150 1060,380 1300,380" fill="#180c12"/>
    <polygon points="1180,350 1040,580 1320,580" fill="#12080c"/>
    <rect x="1450" y="250" width="160" height="830" fill="url(#trunkDark)"/>
    <polygon points="1530,250 1400,620 1660,620" fill="#0d0608" opacity="0.9"/>
    <polygon points="1530,250 1430,450 1630,450" fill="#150a10"/>
    <rect x="1730" y="180" width="190" height="900" fill="url(#trunkDark)"/>
    <polygon points="1825,180 1690,580 1960,580" fill="#0a0508" opacity="0.9"/>
    <polygon points="1825,180 1720,400 1930,400" fill="#12080e"/>
  </g>
  <g opacity="0.7" filter="url(#shadowBlur)">
    <rect x="150" y="350" width="100" height="730" fill="#0a0408"/>
    <polygon points="200,350 130,680 270,680" fill="#0a0408"/>
    <rect x="520" y="280" width="110" height="800" fill="#080306"/>
    <polygon points="575,280 490,650 660,650" fill="#080306"/>
    <rect x="880" y="320" width="90" height="760" fill="#060204"/>
    <polygon points="925,320 850,680 1000,680" fill="#060204"/>
    <rect x="1300" y="290" width="120" height="790" fill="#080306"/>
    <polygon points="1360,290 1270,660 1450,660" fill="#080306"/>
    <rect x="1620" y="340" width="100" height="740" fill="#0a0408"/>
    <polygon points="1670,340 1590,700 1750,700" fill="#0a0408"/>
  </g>
  <g fill="#581c87" opacity="0.35" filter="url(#deepBlur)">
    <circle cx="500" cy="850" r="50"/>
    <circle cx="1100" cy="880" r="60"/>
    <circle cx="1600" cy="820" r="45"/>
  </g>
  <g fill="#c084fc" opacity="0.5" filter="url(#shadowBlur)">
    <circle cx="480" cy="860" r="6"/>
    <circle cx="520" cy="840" r="4"/>
    <circle cx="1080" cy="890" r="7"/>
    <circle cx="1130" cy="860" r="5"/>
    <circle cx="1580" cy="830" r="5"/>
    <circle cx="1620" cy="810" r="4"/>
  </g>
  <ellipse cx="960" cy="1050" rx="950" ry="70" fill="#050208" opacity="0.9"/>
  <g fill="#4c1d95" opacity="0.15" filter="url(#deepBlur)">
    <path d="M740,100 Q700,400 720,700 Q740,900 730,1080" stroke="currentColor" stroke-width="30" fill="none"/>
    <path d="M1180,150 Q1220,450 1200,750 Q1180,950 1190,1080" stroke="currentColor" stroke-width="25" fill="none"/>
  </g>
</svg>