<svg xmlns="http://www.w3.org/2000/svg" viewBox="0 0 1920 1080" preserveAspectRatio="xMidYMid slice">
  <defs>
    <linearGradient id="sky" x1="0%" y1="0%" x2="0%" y2="100%">
      <stop offset="0%" style="stop-color:#4a5568"/>
      <stop offset="40%" style="stop-color:#718096"/>
      <stop offset="70%" style="stop-color:#a0aec0"/>
      <stop offset="100%" style="stop-color:#cbd5e0"/>
    </linearGradient>
    <linearGradient id="mist1" x1="0%" y1="0%" x2="0%" y2="100%">
      <stop offset="0%" style="stop-color:#e2e8f0;stop-opacity:0.6"/>
      <stop offset="100%" style="stop-color:#e2e8f0;stop-opacity:0.1"/>
    </linearGradient>
    <linearGradient id="treeDark" x1="0%" y1="0%" x2="0%" y2="100%">
      <stop offset="0%" style="stop-color:#2d3748"/>
      <stop offset="100%" style="stop-color:#1a202c"/>
    </linearGradient>
    <filter id="blur1"><feGaussianBlur stdDeviation="8"/></filter>
    <filter id="blur2"><feGaussianBlur stdDeviation="15"/></filter>
  </defs>
  <rect width="1920" height="1080" fill="url(#sky)"/>
  <g opacity="0.4" filter="url(#blur2)">
    <ellipse cx="300" cy="750" rx="500" ry="80" fill="#e2e8f0"/>
    <ellipse cx="1200" cy="780" rx="600" ry="70" fill="#e2e8f0"/>
  </g>
  <g opacity="0.35" filter="url(#blur1)">
    <rect x="0" y="200" width="150" height="880" fill="url(#treeDark)"/>
    <polygon points="75,200 20,450 130,450" fill="url(#treeDark)"/>
    <rect x="220" y="180" width="180" height="900" fill="url(#treeDark)"/>
    <polygon points="310,180 180,480 440,480" fill="url(#treeDark)"/>
    <rect x="500" y="220" width="120" height="860" fill="url(#treeDark)"/>
    <polygon points="560,220 460,500 660,500" fill="url(#treeDark)"/>
    <rect x="720" y="150" width="200" height="930" fill="url(#treeDark)"/>
    <polygon points="820,150 660,470 980,470" fill="url(#treeDark)"/>
    <rect x="1000" y="190" width="160" height="890" fill="url(#treeDark)"/>
    <polygon points="1080,190 930,510 1230,510" fill="url(#treeDark)"/>
    <rect x="1280" y="170" width="180" height="910" fill="url(#treeDark)"/>
    <polygon points="1370,170 1220,490 1520,490" fill="url(#treeDark)"/>
    <rect x="1540" y="210" width="140" height="870" fill="url(#treeDark)"/>
    <polygon points="1610,210 1490,500 1730,500" fill="url(#treeDark)"/>
    <rect x="1720" y="180" width="200" height="900" fill="url(#treeDark)"/>
    <polygon points="1820,180 1670,520 1970,520" fill="url(#treeDark)"/>
  </g>
  <g opacity="0.7" filter="url(#blur1)">
    <rect x="0" y="400" width="120" height="680" fill="#1a202c"/>
    <polygon points="60,400 0,700 120,700" fill="#1a202c"/>
    <rect x="180" y="380" width="160" height="700" fill="#1a202c"/>
    <polygon points="260,380 150,720 370,720" fill="#1a202c"/>
    <rect x="420" y="420" width="100" height="660" fill="#1a202c"/>
    <polygon points="470,420 390,720 550,720" fill="#1a202c"/>
    <rect x="600" y="360" width="180" height="720" fill="#1a202c"/>
    <polygon points="690,360 540,700 840,700" fill="#1a202c"/>
    <rect x="870" y="400" width="140" height="680" fill="#1a202c"/>
    <polygon points="940,400 810,710 1070,710" fill="#1a202c"/>
    <rect x="1130" y="370" width="170" height="710" fill="#1a202c"/>
    <polygon points="1215,370 1070,710 1360,710" fill="#1a202c"/>
    <rect x="1400" y="410" width="130" height="670" fill="#1a202c"/>
    <polygon points="1465,410 1340,700 1590,700" fill="#1a202c"/>
    <rect x="1600" y="390" width="160" height="690" fill="#1a202c"/>
    <polygon points="1680,390 1530,720 1830,720" fill="#1a202c"/>
  </g>
  <rect width="1920" height="1080" fill="url(#mist1)"/>
  <g opacity="0.5" filter="url(#blur2)">
    <ellipse cx="500" cy="900" rx="700" ry="60" fill="#ffffff"/>
    <ellipse cx="1500" cy="850" rx="500" ry="50" fill="#ffffff"/>
  </g>
</svg>