<svg xmlns="http://www.w3.org/2000/svg" viewBox="0 0 1920 1080" preserveAspectRatio="xMidYMid slice">
  <defs>
    <linearGradient id="skyGrad" x1="0%" y1="0%" x2="0%" y2="100%">
      <stop offset="0%" style="stop-color:#5a6878"/>
      <stop offset="50%" style="stop-color:#7e8e9e"/>
      <stop offset="100%" style="stop-color:#a8b5c2"/>
    </linearGradient>
    <linearGradient id="pathGrad" x1="0%" y1="0%" x2="0%" y2="100%">
      <stop offset="0%" style="stop-color:#6b5a4a"/>
      <stop offset="100%" style="stop-color:#3d3025"/>
    </linearGradient>
    <linearGradient id="mistGrad" x1="0%" y1="0%" x2="0%" y2="100%">
      <stop offset="0%" style="stop-color:#d1d9e0;stop-opacity:0.7"/>
      <stop offset="100%" style="stop-color:#d1d9e0;stop-opacity:0"/>
    </linearGradient>
    <filter id="mistBlur"><feGaussianBlur stdDeviation="12"/></filter>
    <filter id="softBlur"><feGaussianBlur stdDeviation="5"/></filter>
  </defs>
  <rect width="1920" height="1080" fill="url(#skyGrad)"/>
  <g opacity="0.25" filter="url(#softBlur)">
    <polygon points="0,600 200,450 400,550 600,400 800,520 1000,380 1200,500 1400,420 1600,540 1800,430 1920,510 1920,1080 0,1080" fill="#4a5565"/>
  </g>
  <g opacity="0.35" filter="url(#softBlur)">
    <polygon points="0,700 300,580 500,650 700,540 900,630 1100,520 1300,620 1500,550 1700,640 1920,560 1920,1080 0,1080" fill="#3d4855"/>
  </g>
  <g opacity="0.3">
    <polygon points="0,800 150,720 280,780 450,690 620,760 800,680 950,750 1100,670 1280,740 1450,680 1620,750 1800,700 1920,760 1920,1080 0,1080" fill="#2d3540"/>
  </g>
  <path d="M920,450 Q880,520 850,580 Q800,650 750,720 Q700,790 620,860 Q540,930 450,1000 L550,1080 L1380,1080 Q1280,1000 1200,930 Q1120,860 1060,790 Q1000,720 970,650 Q940,580 930,510 Z" fill="url(#pathGrad)" opacity="0.85"/>
  <path d="M920,450 Q895,485 875,520 Q850,560 825,600 Q800,640 770,680 Q740,720 700,760 Q660,800 610,840 Q560,880 500,920" stroke="#8a7a65" stroke-width="3" fill="none" opacity="0.5"/>
  <path d="M930,510 Q945,550 960,590 Q980,640 1000,690 Q1020,740 1045,790 Q1070,840 1100,890 Q1130,940 1160,990" stroke="#8a7a65" stroke-width="3" fill="none" opacity="0.5"/>
  <g opacity="0.35" filter="url(#softBlur)">
    <rect x="0" y="500" width="200" height="580" fill="#2a333e"/>
    <polygon points="100,500 0,800 200,800" fill="#2a333e"/>
    <rect x="160" y="480" width="180" height="600" fill="#252e38"/>
    <polygon points="250,480 130,820 370,820" fill="#252e38"/>
    <rect x="1500" y="470" width="200" height="610" fill="#2a333e"/>
    <polygon points="1600,470 1460,810 1740,810" fill="#2a333e"/>
    <rect x="1720" y="510" width="200" height="570" fill="#252e38"/>
    <polygon points="1820,510 1680,830 1960,830" fill="#252e38"/>
  </g>
  <g opacity="0.55" filter="url(#mistBlur)">
    <ellipse cx="400" cy="650" rx="350" ry="50" fill="#e0e6ed"/>
    <ellipse cx="1000" cy="700" rx="450" ry="60" fill="#e0e6ed"/>
    <ellipse cx="1600" cy="680" rx="380" ry="55" fill="#e0e6ed"/>
  </g>
  <rect width="1920" height="1080" fill="url(#mistGrad)"/>
  <g opacity="0.4" filter="url(#mistBlur)">
    <ellipse cx="600" cy="850" rx="500" ry="45" fill="#edf1f5"/>
    <ellipse cx="1400" cy="880" rx="450" ry="50" fill="#edf1f5"/>
  </g>
  <g fill="#e8ecf0" opacity="0.25">
    <circle cx="700" cy="720" r="2"/>
    <circle cx="780" cy="740" r="1.5"/>
    <circle cx="850" cy="710" r="2"/>
    <circle cx="1100" cy="730" r="1.8"/>
    <circle cx="1180" cy="760" r="2.2"/>
    <circle cx="1260" cy="720" r="1.6"/>
  </g>
</svg>